<svg aria-hidden="true" style="position: absolute; width: 0; height: 0; overflow: hidden;" version="1.1" xmlns="http://www.w3.org/2000/svg" xmlns:xlink="http://www.w3.org/1999/xlink">
<defs>
<symbol id="icon-caret-down" viewBox="0 0 20 32">
<path d="M8.588 23.413c0.781 0.781 2.050 0.781 2.831 0l8-8c0.575-0.575 0.744-1.431 0.431-2.181s-1.038-1.238-1.85-1.238l-16 0.006c-0.806 0-1.538 0.488-1.85 1.238s-0.138 1.606 0.431 2.181l8 8z"></path>
</symbol>
<symbol id="icon-customize" viewBox="0 0 40 32">
<path d="M19.281 8.456c0.444-0.394 0.619-1.013 0.387-1.563-0.144-0.331-0.3-0.656-0.475-0.969l-0.194-0.338c-0.188-0.313-0.394-0.619-0.613-0.912-0.356-0.475-0.981-0.631-1.544-0.444l-1.762 0.581c-0.669-0.55-1.438-1-2.262-1.306l-0.381-1.813c-0.119-0.581-0.569-1.044-1.156-1.113-0.412-0.056-0.831-0.081-1.256-0.081h-0.044c-0.425 0-0.844 0.025-1.256 0.075-0.588 0.069-1.037 0.537-1.156 1.113l-0.381 1.819c-0.831 0.313-1.594 0.756-2.263 1.306l-1.769-0.575c-0.563-0.188-1.188-0.031-1.544 0.444-0.219 0.294-0.425 0.6-0.619 0.912l-0.188 0.331c-0.175 0.313-0.331 0.638-0.475 0.975-0.231 0.544-0.056 1.163 0.387 1.562l1.388 1.238c-0.069 0.419-0.106 0.856-0.106 1.3s0.038 0.881 0.106 1.306l-1.387 1.238c-0.444 0.394-0.619 1.012-0.388 1.563 0.144 0.331 0.3 0.656 0.475 0.975l0.188 0.325c0.188 0.319 0.394 0.619 0.619 0.913 0.356 0.475 0.981 0.631 1.544 0.444l1.763-0.581c0.669 0.55 1.438 1 2.263 1.306l0.381 1.819c0.119 0.581 0.569 1.044 1.156 1.113 0.419 0.050 0.844 0.075 1.275 0.075s0.856-0.025 1.275-0.075c0.588-0.069 1.037-0.538 1.156-1.113l0.381-1.819c0.831-0.313 1.594-0.756 2.263-1.306l1.762 0.581c0.563 0.188 1.188 0.031 1.544-0.444 0.219-0.294 0.425-0.594 0.613-0.913l0.194-0.337c0.175-0.313 0.331-0.637 0.475-0.969 0.231-0.544 0.056-1.162-0.387-1.563l-1.387-1.238c0.069-0.425 0.106-0.863 0.106-1.306s-0.038-0.881-0.106-1.306l1.387-1.238zM7 11c0-1.657 1.343-3 3-3s3 1.343 3 3v0c0 1.657-1.343 3-3 3s-3-1.343-3-3v0zM31.544 31.281c0.394 0.444 1.012 0.619 1.563 0.387 0.331-0.144 0.656-0.3 0.969-0.475l0.337-0.194c0.313-0.188 0.619-0.394 0.913-0.613 0.475-0.356 0.631-0.981 0.444-1.544l-0.581-1.762c0.55-0.669 1-1.438 1.306-2.262l1.819-0.381c0.581-0.119 1.044-0.569 1.112-1.156 0.050-0.419 0.075-0.844 0.075-1.275s-0.025-0.856-0.075-1.275c-0.069-0.587-0.538-1.038-1.112-1.156l-1.819-0.387c-0.313-0.831-0.756-1.594-1.306-2.262l0.581-1.762c0.188-0.563 0.031-1.188-0.444-1.544-0.294-0.219-0.6-0.425-0.913-0.619l-0.331-0.188c-0.313-0.175-0.638-0.331-0.975-0.475-0.544-0.231-1.163-0.056-1.563 0.387l-1.238 1.387c-0.425-0.069-0.863-0.106-1.306-0.106s-0.881 0.037-1.306 0.106l-1.238-1.387c-0.394-0.444-1.012-0.619-1.563-0.387-0.331 0.144-0.656 0.3-0.975 0.475l-0.325 0.188c-0.319 0.188-0.619 0.394-0.913 0.619-0.475 0.356-0.631 0.981-0.444 1.544l0.581 1.762c-0.55 0.669-1 1.438-1.306 2.262l-1.819 0.375c-0.581 0.119-1.044 0.569-1.113 1.156-0.050 0.419-0.075 0.844-0.075 1.275s0.025 0.856 0.075 1.275c0.069 0.587 0.538 1.038 1.113 1.156l1.819 0.381c0.313 0.831 0.756 1.594 1.306 2.262l-0.581 1.762c-0.188 0.563-0.031 1.188 0.444 1.544 0.294 0.219 0.594 0.425 0.913 0.613l0.337 0.194c0.313 0.175 0.637 0.331 0.969 0.475 0.544 0.231 1.163 0.056 1.563-0.387l1.238-1.387c0.425 0.069 0.863 0.106 1.306 0.106s0.881-0.038 1.306-0.106l1.238 1.387zM29 19c1.657 0 3 1.343 3 3s-1.343 3-3 3v0c-1.657 0-3-1.343-3-3s1.343-3 3-3v0z"></path>
</symbol>
<symbol id="icon-next" viewBox="0 0 28 32">
<path d="M27.413 17.413c0.781-0.781 0.781-2.050 0-2.831l-10-10c-0.781-0.781-2.050-0.781-2.831 0s-0.781 2.050 0 2.831l6.594 6.587h-19.175c-1.106 0-2 0.894-2 2s0.894 2 2 2h19.169l-6.581 6.587c-0.781 0.781-0.781 2.050 0 2.831s2.050 0.781 2.831 0l10-10z"></path>
</symbol>
<symbol id="icon-restart" viewBox="0 0 32 32">
<path d="M24.144 10h-3.144c-1.106 0-2 0.894-2 2s0.894 2 2 2h8c1.106 0 2-0.894 2-2v-8c0-1.106-0.894-2-2-2s-2 0.894-2 2v3.2l-1.1-1.1c-5.469-5.469-14.331-5.469-19.8 0s-5.469 14.331 0 19.8 14.331 5.469 19.8 0c0.781-0.781 0.781-2.050 0-2.831s-2.050-0.781-2.831 0c-3.906 3.906-10.238 3.906-14.144 0s-3.906-10.238 0-14.144 10.238-3.906 14.144 0l1.075 1.075z"></path>
</symbol>
<symbol id="icon-word-2" viewBox="0 0 28 32">
<path d="M15.875 3.3c-0.294-0.781-1.044-1.3-1.875-1.3s-1.581 0.519-1.875 1.3l-8.512 22.7h-1.612c-1.106 0-2 0.894-2 2s0.894 2 2 2h6c1.106 0 2-0.894 2-2s-0.894-2-2-2h-0.112l1.125-3h9.975l1.125 3h-0.113c-1.106 0-2 0.894-2 2s0.894 2 2 2h6c1.106 0 2-0.894 2-2s-0.894-2-2-2h-1.613l-8.512-22.7zM17.488 19h-6.975l3.487-9.306 3.488 9.306z"></path>
</symbol>
<symbol id="icon-quote" viewBox="0 0 28 32">
<path d="M0 13.5c0-4.144 3.356-7.5 7.5-7.5h0.5c1.106 0 2 0.894 2 2s-0.894 2-2 2h-0.5c-1.931 0-3.5 1.569-3.5 3.5v0.5h4c2.206 0 4 1.794 4 4v4c0 2.206-1.794 4-4 4h-4c-2.206 0-4-1.794-4-4v-8.5zM16 13.5c0-4.144 3.356-7.5 7.5-7.5h0.5c1.106 0 2 0.894 2 2s-0.894 2-2 2h-0.5c-1.931 0-3.5 1.569-3.5 3.5v0.5h4c2.206 0 4 1.794 4 4v4c0 2.206-1.794 4-4 4h-4c-2.206 0-4-1.794-4-4v-8.5z"></path>
</symbol>
<symbol id="icon-word" viewBox="0 0 32 32">
<path d="M18.288 25.486l-7.5-20c-0.201-0.526-0.701-0.892-1.287-0.892s-1.086 0.367-1.284 0.883l-0.003 0.009-7.5 20c-0.053 0.14-0.083 0.302-0.083 0.471 0 0.759 0.616 1.375 1.375 1.375 0.582 0 1.079-0.361 1.28-0.871l0.003-0.009 2.26-6.026c0.018-0.048 0.064-0.081 0.117-0.081v0h7.671c0.053 0 0.099 0.033 0.117 0.080l0 0.001 2.26 6.026c0.204 0.52 0.701 0.881 1.283 0.881 0.759 0 1.375-0.616 1.375-1.375 0-0.169-0.030-0.331-0.086-0.48l0.003 0.009zM6.673 17.424l2.711-7.228c0.018-0.048 0.064-0.081 0.117-0.081s0.098 0.033 0.117 0.080l0 0.001 2.711 7.229c0.005 0.013 0.008 0.028 0.008 0.044 0 0.069-0.056 0.125-0.125 0.125v0h-5.421c-0.069-0-0.125-0.056-0.125-0.125 0-0.016 0.003-0.031 0.008-0.045l-0 0.001zM25.048 10.594c-2.608-0.019-4.942 1.492-5.938 3.838-0.069 0.159-0.109 0.343-0.109 0.537 0 0.759 0.616 1.375 1.375 1.375 0.565 0 1.051-0.341 1.262-0.829l0.003-0.009c0.555-1.306 1.861-2.152 3.332-2.162 2.020-0.014 3.651 1.656 3.651 3.678 0 0 0 0 0 0 0 0.051-0.040 0.092-0.090 0.094h-0c-1.37 0.038-2.995 0.129-4.445 0.3-3.422 0.402-5.464 2.268-5.464 4.991 0 1.449 0.547 2.75 1.542 3.668 0.933 0.859 2.208 1.332 3.583 1.332 1.938 0 3.606-0.5 4.871-1.451h0.004c0 0.002 0 0.004 0 0.006 0 0.759 0.616 1.375 1.375 1.375 0.757 0 1.372-0.612 1.375-1.369v-8.938c0-3.511-2.813-6.41-6.327-6.436zM23.75 24.656c-1.096 0-2.375-0.589-2.375-2.25 0-0.667 0.239-1.134 0.777-1.514 0.523-0.371 1.325-0.635 2.259-0.745 1.32-0.156 2.801-0.241 4.071-0.279 0 0 0 0 0 0 0.069 0 0.125 0.056 0.125 0.125 0 0.002-0 0.004-0 0.007v-0c-0.169 3.133-1.766 4.657-4.857 4.657z"></path>
</symbol>
<symbol id="icon-time" viewBox="0 0 32 32">
<path d="M16 0c8.837 0 16 7.163 16 16s-7.163 16-16 16v0c-8.837 0-16-7.163-16-16s7.163-16 16-16v0zM14.5 7.5v8.5c0 0.5 0.25 0.969 0.669 1.25l6 4c0.688 0.462 1.619 0.275 2.081-0.419s0.275-1.619-0.419-2.081l-5.331-3.55v-7.7c0-0.831-0.669-1.5-1.5-1.5s-1.5 0.669-1.5 1.5z"></path>
</symbol>
<symbol id="icon-leaderboard" viewBox="0 0 28 32">
<path d="M10 5c0-1.656 1.344-3 3-3h2c1.656 0 3 1.344 3 3v22c0 1.656-1.344 3-3 3h-2c-1.656 0-3-1.344-3-3v-22zM0 17c0-1.656 1.344-3 3-3h2c1.656 0 3 1.344 3 3v10c0 1.656-1.344 3-3 3h-2c-1.656 0-3-1.344-3-3v-10zM23 6h2c1.656 0 3 1.344 3 3v18c0 1.656-1.344 3-3 3h-2c-1.656 0-3-1.344-3-3v-18c0-1.656 1.344-3 3-3z"></path>
</symbol>
</defs>
</svg>
